<svg width="108" height="108" viewBox="0 0 108 108" fill="none" xmlns="http://www.w3.org/2000/svg">
<g clip-path="url(#clip0_37_206)">
<rect width="108" height="108" rx="32" fill="white"/>
<rect x="-24" y="-27" width="154" height="160" fill="#1C0A29"/>
<ellipse cx="10.1541" cy="10.822" rx="10.1541" ry="10.822" transform="matrix(0.00904406 0.999959 -0.999965 0.00837323 49.6434 61.7701)" fill="#26E2A9"/>
<path d="M56.9527 83.2094V55.8991V54.16L87.9176 83.2094H56.9527Z" fill="#26E2A9"/>
<rect x="42.0983" y="23" width="7.04912" height="31.721" fill="#26E2A9"/>
<rect x="28" y="23" width="7.04912" height="31.721" fill="#26E2A9"/>
<path d="M57.0172 62.105C60.0924 62.105 63.1375 61.5992 65.9786 60.6166C68.8197 59.634 71.4012 58.1938 73.5757 56.3782C75.7502 54.5626 77.4751 52.4071 78.6519 50.0349C79.8287 47.6627 80.4344 45.1202 80.4344 42.5525C80.4344 39.9848 79.8287 37.4423 78.6519 35.0701C77.4751 32.6979 75.7502 30.5424 73.5757 28.7268C71.4012 26.9112 68.8197 25.4709 65.9786 24.4883C63.1375 23.5057 60.0924 23 57.0172 23L57.0172 30.8663C58.8552 30.8663 60.6752 31.1686 62.3733 31.7559C64.0714 32.3432 65.6143 33.204 66.9139 34.2891C68.2136 35.3743 69.2445 36.6626 69.9479 38.0804C70.6512 39.4982 71.0133 41.0178 71.0133 42.5525C71.0133 44.0871 70.6512 45.6068 69.9479 47.0246C69.2445 48.4424 68.2136 49.7307 66.9139 50.8159C65.6143 51.901 64.0714 52.7618 62.3733 53.3491C60.6752 53.9364 58.8552 54.2386 57.0172 54.2386L57.0172 62.105Z" fill="#26E2A9"/>
</g>
<defs>
<clipPath id="clip0_37_206">
<rect width="108" height="108" rx="32" fill="white"/>
</clipPath>
</defs>
</svg>
