<svg width="438" height="512" viewBox="0 0 438 512" fill="none" xmlns="http://www.w3.org/2000/svg">
<ellipse cx="85.5013" cy="428.52" rx="81.7935" ry="83.8787" transform="rotate(89.5014 85.5013 428.52)" fill="#26E2A9"/>
<path d="M198 485V265.009V251L438 485H198Z" fill="#26E2A9"/>
<rect x="103" width="57" height="325" fill="#26E2A9"/>
<rect x="17.0001" width="57" height="325" fill="#26E2A9"/>
<path d="M198.5 315C222.335 315 245.937 310.926 267.957 303.011C289.978 295.096 309.986 283.495 326.84 268.869C343.694 254.244 357.063 236.881 366.184 217.773C375.305 198.664 380 178.183 380 157.5C380 136.817 375.305 116.336 366.184 97.2274C357.063 78.1186 343.694 60.7559 326.84 46.1307C309.986 31.5055 289.978 19.9041 267.957 11.989C245.937 4.07386 222.335 -9.04091e-07 198.5 0L198.5 63.3651C212.746 63.3651 226.852 65.8 240.013 70.5307C253.175 75.2614 265.133 82.1954 275.207 90.9366C285.28 99.6778 293.27 110.055 298.722 121.476C304.173 132.897 306.979 145.138 306.979 157.5C306.979 169.862 304.173 182.103 298.722 193.524C293.27 204.945 285.28 215.322 275.207 224.063C265.133 232.805 253.175 239.739 240.013 244.469C226.852 249.2 212.746 251.635 198.5 251.635L198.5 315Z" fill="#26E2A9"/>
</svg>
