<svg width="176" height="176" viewBox="0 0 176 176" fill="none" xmlns="http://www.w3.org/2000/svg">
<g clip-path="url(#clip0_37_206)">
<rect width="176" height="176" rx="48" fill="#030817"/>
<ellipse cx="15.0431" cy="16.0326" rx="15.0431" ry="16.0326" transform="matrix(0.00904406 0.999959 -0.999965 0.00837323 81.5458 99.5112)" fill="#64D98A"/>
<path d="M92.3744 131.273V90.8135V88.2371L138.248 131.273H92.3744Z" fill="#64D98A"/>
<rect x="70.3678" y="42.0741" width="10.4431" height="46.9941" fill="#64D98A"/>
<rect x="49.4814" y="42.0741" width="10.4431" height="46.9941" fill="#64D98A"/>
<path d="M92.4699 100.007C97.0258 100.007 101.537 99.2581 105.746 97.8024C109.955 96.3467 113.78 94.2131 117.001 91.5233C120.222 88.8335 122.778 85.6402 124.521 82.1258C126.265 78.6114 127.162 74.8447 127.162 71.0407C127.162 67.2368 126.265 63.4701 124.521 59.9557C122.778 56.4413 120.222 53.248 117.001 50.5582C113.78 47.8684 109.955 45.7348 105.746 44.2791C101.537 42.8233 97.0258 42.0741 92.4699 42.0741V53.7279C95.1929 53.7279 97.8892 54.1757 100.405 55.0458C102.92 55.9158 105.206 57.1911 107.132 58.7987C109.057 60.4064 110.584 62.3149 111.626 64.4154C112.668 66.5159 113.205 68.7672 113.205 71.0407C113.205 73.3143 112.668 75.5656 111.626 77.6661C110.584 79.7666 109.057 81.6751 107.132 83.2828C105.206 84.8904 102.92 86.1657 100.405 87.0357C97.8892 87.9058 95.1929 88.3536 92.4699 88.3536V100.007Z" fill="#64D98A"/>
</g>
<defs>
<clipPath id="clip0_37_206">
<rect width="176" height="176" fill="white"/>
</clipPath>
</defs>
</svg>
