<svg width="179" height="213" viewBox="0 0 179 213" fill="none" xmlns="http://www.w3.org/2000/svg">
<rect x="16.9999" width="28" height="106" fill="white"/>
<rect x="179" y="166.956" width="29.9025" height="74.341" transform="rotate(90 179 166.956)" fill="#26E2A9"/>
<rect x="164.464" y="124.594" width="29.9025" height="59.3898" transform="rotate(90 164.464 124.594)" fill="white"/>
<ellipse cx="47.5342" cy="166.091" rx="43.9395" ry="45.0597" transform="rotate(93.3277 47.5342 166.091)" fill="white"/>
<rect width="106.288" height="27.8299" transform="matrix(0 -1 0.999989 -0.00471864 61.8817 106.835)" fill="white"/>
<rect x="62" y="63" width="28" height="44" fill="#26E2A9"/>
<rect x="17" y="37" width="28" height="70" fill="#26E2A9"/>
<path d="M106.5 107C114.576 107 122.574 105.616 130.035 102.928C137.497 100.239 144.276 96.2981 149.987 91.3302C155.698 86.3623 160.228 80.4645 163.319 73.9736C166.409 67.4826 168 60.5257 168 53.5C168 46.4743 166.409 39.5174 163.319 33.0264C160.228 26.5355 155.698 20.6377 149.987 15.6698C144.276 10.7019 137.497 6.76107 130.035 4.07244C122.574 1.38382 114.576 -3.07104e-07 106.5 0L106.5 21.524C111.327 21.524 116.107 22.3511 120.567 23.958C125.026 25.565 129.078 27.9203 132.491 30.8896C135.905 33.8588 138.612 37.3838 140.459 41.2633C142.307 45.1428 143.257 49.3009 143.257 53.5C143.257 57.6991 142.307 61.8572 140.459 65.7367C138.612 69.6162 135.905 73.1412 132.491 76.1104C129.078 79.0797 125.026 81.435 120.567 83.042C116.107 84.6489 111.327 85.476 106.5 85.476L106.5 107Z" fill="#26E2A9"/>
<path d="M106.5 0C116.32 -3.73406e-07 125.997 2.04562 134.722 5.96573C143.447 9.88585 150.966 15.5665 156.65 22.5325L136.474 34.9913C133.076 30.8278 128.582 27.4326 123.368 25.0896C118.153 22.7467 112.369 21.524 106.5 21.524L106.5 0Z" fill="white"/>
<path d="M84.6703 191.158C79.4534 198.561 72.0352 204.226 63.415 207.392C54.7949 210.558 45.3869 211.071 36.4583 208.863C27.5297 206.656 19.5094 201.832 13.4779 195.044C7.44643 188.255 3.69343 179.827 2.72447 170.894C1.75551 161.962 3.61714 152.954 8.0586 145.085C12.5 137.216 19.3079 130.864 27.5652 126.883C35.8225 122.902 45.1325 121.485 54.2411 122.822C63.3497 124.159 71.8193 128.186 78.5091 134.361L47.5341 166.272L84.6703 191.158Z" fill="#26E2A9"/>
</svg>
