<svg width="422" height="490" viewBox="0 0 422 490" fill="none" xmlns="http://www.w3.org/2000/svg">
<rect x="422" y="377.703" width="59.8299" height="179.49" transform="rotate(90 422 377.703)" fill="#14A0E6"/>
<rect x="385.304" y="287.197" width="59.8299" height="142.794" transform="rotate(90 385.304 287.197)" fill="#F4F4F4"/>
<ellipse cx="114.454" cy="377.576" rx="105.799" ry="108.496" transform="rotate(93.3277 114.454 377.576)" fill="#F4F4F4"/>
<rect width="100.026" height="67.0095" transform="matrix(0 -1 0.999989 -0.00471864 130.828 101.154)" fill="#F4F4F4"/>
<rect width="45.2369" height="67.2154" transform="matrix(-0.010698 0.999943 -0.99998 -0.00640005 102.149 54.6893)" fill="#F4F4F4"/>
<rect width="18.1459" height="59.2548" transform="matrix(0.999978 0.00659838 -0.0023003 0.999997 227.025 0)" fill="#F4F4F4"/>
<path d="M244.114 0.375732C246.829 0.378401 249.56 0.449119 252.305 0.593506C330.349 4.69967 389.937 65.2728 385.399 135.887C381.022 204.003 318.576 256.578 244.114 256.529V217.475C298.453 217.4 342.477 177.521 342.477 128.338C342.477 79.1544 298.453 39.2749 244.114 39.2V0.375732Z" fill="#14A0E6"/>
<path d="M244.114 28.3816C246.392 28.3837 248.683 28.4409 250.985 28.5574C316.456 31.8692 366.444 80.7251 362.638 137.68C358.965 192.62 306.58 235.025 244.114 234.986V203.487C289.698 203.427 326.631 171.261 326.631 131.592C326.631 91.9219 289.698 59.7564 244.114 59.696V28.3816Z" fill="#14A0E6"/>
<rect x="130.828" y="76.0116" width="67.0095" height="181.085" fill="#14A0E6"/>
<rect x="34.3022" y="0.0135498" width="67.0095" height="256.87" fill="#14A0E6"/>
<mask id="mask0_16_41" style="mask-type:alpha" maskUnits="userSpaceOnUse" x="244" y="0" width="142" height="257">
<path d="M244.114 0.375732C246.829 0.378399 249.56 0.448143 252.305 0.592529C330.349 4.6986 389.937 65.2719 385.399 135.886C381.022 204.002 318.577 256.577 244.114 256.528V217.475C298.453 217.401 342.477 177.521 342.477 128.338C342.477 79.1541 298.453 39.2737 244.114 39.199V0.375732Z" fill="#ADCFFF"/>
<path d="M244.114 28.3815C246.392 28.3836 248.683 28.4398 250.985 28.5563C316.456 31.8682 366.445 80.7249 362.638 137.68C358.966 192.62 306.58 235.025 244.114 234.986V203.486C289.698 203.426 326.631 171.261 326.631 131.591C326.631 91.9217 289.698 59.7554 244.114 59.6949V28.3815Z" fill="#ADCFFF"/>
</mask>
<g mask="url(#mask0_16_41)">
<rect width="159.48" height="198.708" transform="matrix(0.421259 0.90694 -0.8707 0.491814 335.518 -93.1111)" fill="#F4F4F4"/>
</g>
<path d="M222.95 378.011C222.95 401.666 214.82 424.639 199.86 443.259C184.9 461.88 163.972 475.075 140.419 480.736C116.866 486.396 92.0468 484.197 69.9261 474.489C47.8054 464.781 29.6592 448.124 18.386 427.178C7.1128 406.233 3.36303 382.208 7.73564 358.941C12.1082 335.673 24.351 314.506 42.5082 298.82C60.6655 283.134 83.6898 273.834 107.903 272.406C132.117 270.978 156.123 277.503 176.087 290.941L114.454 378.011L222.95 378.011Z" fill="#14A0E6"/>
</svg>
